<svg xmlns="http://www.w3.org/2000/svg" width="24" height="24" viewBox="0 0 24 24">
    <path fill="#FFF" d="M12 18.531c3.746 0 6.781-3.035 6.781-6.781 0-3.746-3.035-6.781-6.781-6.781-3.746 0-6.781 3.035-6.781 6.781 0 3.746 3.035 6.781 6.781 6.781zm2.136-9.406H9.864c.457-2.075 1.4-3.281 2.136-3.281.736 0 1.679 1.206 2.136 3.281zm3.147 0h-2.256c-.246-1.214-.66-2.248-1.181-2.983 1.504.497 2.74 1.583 3.437 2.983zm-8.31 0H6.717c.697-1.4 1.933-2.486 3.437-2.983-.52.733-.935 1.766-1.181 2.983zm5.316 4.375H9.71c-.074-.541-.117-1.124-.117-1.75 0-.626.043-1.209.117-1.75h4.578c.073.541.117 1.124.117 1.75 0 .626-.044 1.209-.117 1.75zm-5.455 0H6.359c-.172-.552-.265-1.14-.265-1.75 0-.61.093-1.198.265-1.75h2.475c-.072.56-.115 1.143-.115 1.75s.04 1.19.115 1.75zm8.807 0h-2.475c.071-.56.115-1.143.115-1.75s-.04-1.19-.115-1.75h2.475c.172.552.265 1.14.265 1.75 0 .61-.093 1.198-.265 1.75zm-7.487 3.858c-1.504-.497-2.74-1.583-3.437-2.983h2.256c.246 1.214.659 2.248 1.181 2.983zm1.846.298c-.736 0-1.679-1.206-2.136-3.281h4.272c-.457 2.075-1.4 3.281-2.136 3.281zm1.846-.298c.52-.733.935-1.766 1.18-2.983h2.257c-.697 1.4-1.933 2.486-3.437 2.983z"/>
</svg>
